<svg width="24" height="25" viewBox="0 0 24 25" fill="none" xmlns="http://www.w3.org/2000/svg">
<path d="M13.0271 2.9624C14.1525 2.96426 14.7228 2.97022 15.2156 2.98489L15.4097 2.99123C15.6339 2.9992 15.8551 3.0092 16.1218 3.0217C17.1859 3.07087 17.9118 3.2392 18.5493 3.4867C19.2084 3.74087 19.7651 4.0842 20.3209 4.64004C20.8759 5.19587 21.2193 5.7542 21.4743 6.4117C21.7209 7.04837 21.8893 7.77504 21.9393 8.8392C21.9512 9.10587 21.9608 9.32707 21.9687 9.55131L21.975 9.7454C21.9896 10.2381 21.9963 10.8085 21.9984 11.934L21.9992 12.6796C21.9993 12.7707 21.9993 12.8647 21.9993 12.9617L21.9992 13.2438L21.9986 13.9895C21.9967 15.1149 21.9908 15.6853 21.9761 16.178L21.9697 16.3721C21.9618 16.5964 21.9518 16.8176 21.9393 17.0842C21.8901 18.1484 21.7209 18.8742 21.4743 19.5117C21.2201 20.1709 20.8759 20.7276 20.3209 21.2834C19.7651 21.8384 19.2059 22.1817 18.5493 22.4367C17.9118 22.6834 17.1859 22.8517 16.1218 22.9017C15.8551 22.9136 15.6339 22.9233 15.4097 22.9311L15.2156 22.9374C14.7228 22.9521 14.1525 22.9587 13.0271 22.9609L12.2814 22.9617C12.1903 22.9617 12.0963 22.9617 11.9993 22.9617H11.7172L10.9715 22.961C9.84612 22.9592 9.27574 22.9532 8.78299 22.9385L8.58891 22.9322C8.36466 22.9242 8.14346 22.9142 7.8768 22.9017C6.81263 22.8526 6.08763 22.6834 5.4493 22.4367C4.79096 22.1826 4.23346 21.8384 3.67763 21.2834C3.1218 20.7276 2.7793 20.1684 2.5243 19.5117C2.2768 18.8742 2.1093 18.1484 2.0593 17.0842C2.04742 16.8176 2.03773 16.5964 2.02988 16.3721L2.02359 16.178C2.00896 15.6853 2.00229 15.1149 2.00013 13.9895L2 11.934C2.00186 10.8085 2.00781 10.2381 2.02248 9.7454L2.02883 9.55131C2.0368 9.32707 2.0468 9.10587 2.0593 8.8392C2.10846 7.7742 2.2768 7.0492 2.5243 6.4117C2.77846 5.75337 3.1218 5.19587 3.67763 4.64004C4.23346 4.0842 4.7918 3.7417 5.4493 3.4867C6.0868 3.2392 6.8118 3.0717 7.8768 3.0217C8.14346 3.00983 8.36466 3.00014 8.58891 2.99229L8.78299 2.986C9.27574 2.97136 9.84612 2.96469 10.9715 2.96253L13.0271 2.9624ZM11.9993 7.9617C9.2364 7.9617 6.9993 10.2012 6.9993 12.9617C6.9993 15.7246 9.23883 17.9617 11.9993 17.9617C14.7622 17.9617 16.9993 15.7222 16.9993 12.9617C16.9993 10.1988 14.7597 7.9617 11.9993 7.9617ZM11.9993 9.9617C13.6562 9.9617 14.9993 11.3044 14.9993 12.9617C14.9993 14.6186 13.6566 15.9617 11.9993 15.9617C10.3424 15.9617 8.9993 14.6191 8.9993 12.9617C8.9993 11.3048 10.3419 9.9617 11.9993 9.9617ZM17.2493 6.4617C16.56 6.4617 15.9993 7.02161 15.9993 7.71085C15.9993 8.4001 16.5592 8.96087 17.2493 8.96087C17.9385 8.96087 18.4993 8.40097 18.4993 7.71085C18.4993 7.02161 17.9376 6.46084 17.2493 6.4617Z" fill="#F54748"/>
</svg>
