<svg width="25" height="26" viewBox="0 0 25 26" fill="none" xmlns="http://www.w3.org/2000/svg">
<path d="M22.8844 6.64091C22.121 6.97861 21.3114 7.20041 20.4825 7.29897C21.3558 6.77618 22.0093 5.95376 22.3212 4.98491C21.5006 5.47247 20.6024 5.81563 19.6657 5.99947C18.875 5.15592 17.7699 4.67789 16.6137 4.6792C14.3045 4.6792 12.4316 6.55147 12.4316 8.86169C12.4316 9.18944 12.4692 9.50728 12.5395 9.81395C9.06235 9.6389 5.98195 7.97491 3.91866 5.44427C3.54717 6.08253 3.35193 6.80804 3.35292 7.54653C3.35292 8.99745 4.09148 10.2781 5.21337 11.0279C4.54925 11.0069 3.89976 10.8275 3.31906 10.5046C3.31842 10.5222 3.31842 10.5397 3.31842 10.5563C3.31842 12.5833 4.76007 14.2741 6.67387 14.658C6.31468 14.7552 5.9442 14.8043 5.5721 14.804C5.30185 14.804 5.03959 14.7791 4.78467 14.7302C5.31719 16.3914 6.86074 17.6008 8.69148 17.634C7.21001 18.7967 5.38057 19.4275 3.49731 19.4248C3.164 19.4251 2.83097 19.4054 2.5 19.366C4.41192 20.5951 6.6374 21.2474 8.9103 21.245C16.6035 21.245 20.8099 14.8724 20.8099 9.34597C20.8099 9.16516 20.8055 8.98372 20.7975 8.80483C21.6162 8.21331 22.3229 7.48053 22.8844 6.64091Z" fill="#F54748"/>
</svg>
